HIERARCHY
ROOT Beta:Hips
{
	OFFSET 0.00 0.00 0.00
	CHANNELS 6 Xposition Yposition Zposition Yrotation Xrotation Zrotation
	JOINT Beta:Spine
	{
		OFFSET	0.0000	9.2263	1.5771
		CHANNELS 3 Xrotation Yrotation Zrotation
		JOINT Beta:Spine1
		{
			OFFSET	0.0000	16.2540	-0.1656
			CHANNELS 3 Xrotation Yrotation Zrotation
			JOINT Beta:Spine2
			{
				OFFSET	0.0000	13.6396	-1.2923
				CHANNELS 3 Xrotation Yrotation Zrotation
				JOINT Beta:Neck
				{
					OFFSET	0.0000	13.8774	-4.3542
					CHANNELS 3 Xrotation Yrotation Zrotation
					JOINT Beta:Neck1
					{
						OFFSET	0.0000	4.3400	0.9269
						CHANNELS 3 Xrotation Yrotation Zrotation
						JOINT Beta:Head
						{
							OFFSET	0.0000	4.0266	0.8585
							CHANNELS 3 Xrotation Yrotation Zrotation
							End Site
							{
								OFFSET 0.0000 23.0297 0.1231
							}
						}
					}
				}
				JOINT Beta:LeftShoulder
				{
					OFFSET	6.1442	10.1870	-3.7932
					CHANNELS 3 Zrotation Xrotation Yrotation
					JOINT Beta:LeftArm
					{
						OFFSET	12.3191	-1.1130	-1.7935
						CHANNELS 3 Zrotation Xrotation Yrotation
						JOINT Beta:LeftForeArm
						{
							OFFSET	27.6870	0.0000	0.0000
							CHANNELS 3 Xrotation Zrotation Yrotation
							JOINT Beta:LeftHand
							{
								OFFSET	27.8738	0.0000	0.0000
								CHANNELS 3 Zrotation Yrotation Xrotation
								JOINT Beta:LeftHandThumb1
								{
									OFFSET	2.3785	-1.0029	2.6209
									CHANNELS 3 Zrotation Xrotation Yrotation
									JOINT Beta:LeftHandThumb2
									{
										OFFSET	3.3624	-1.0029	2.8398
										CHANNELS 3 Zrotation Xrotation Yrotation
										JOINT Beta:LeftHandThumb3
										{
											OFFSET	4.5018	-1.3445	2.1783
											CHANNELS 3 Zrotation Xrotation Yrotation
											End Site
											{
												OFFSET 2.6000 -1.0000 1.0000
											}
										}
									}
								}
								JOINT Beta:LeftHandMiddle1
								{
									OFFSET	10.4639	0.6148	0.4298
									CHANNELS 3 Zrotation Xrotation Yrotation
									JOINT Beta:LeftHandMiddle2
									{
										OFFSET	5.7921	0.0000	0.0000
										CHANNELS 3 Zrotation Xrotation Yrotation
										JOINT Beta:LeftHandMiddle3
										{
											OFFSET	3.7132	0.0000	0.0000
											CHANNELS 3 Zrotation Xrotation Yrotation
											End Site
											{
												OFFSET 2.3000 0.0000 0.0000
											}
										}
									}
								}
								JOINT Beta:LeftHandIndex1
								{
									OFFSET	10.3945	0.6148	2.7055
									CHANNELS 3 Zrotation Xrotation Yrotation
									JOINT Beta:LeftHandIndex2
									{
										OFFSET	5.5493	0.0000	0.0000
										CHANNELS 3 Zrotation Xrotation Yrotation
										JOINT Beta:LeftHandIndex3
										{
											OFFSET	3.3911	0.0000	0.0000
											CHANNELS 3 Zrotation Xrotation Yrotation
											End Site
											{
												OFFSET 2.5000 0.0000 0.0000
											}
										}
									}
								}
								JOINT Beta:LeftHandRing1
								{
									OFFSET	10.3252	0.3211	-1.8755
									CHANNELS 3 Zrotation Xrotation Yrotation
									JOINT Beta:LeftHandRing2
									{
										OFFSET	5.4452	0.0000	0.0000
										CHANNELS 3 Zrotation Xrotation Yrotation
										JOINT Beta:LeftHandRing3
										{
											OFFSET	3.7132	0.0000	0.0000
											CHANNELS 3 Zrotation Xrotation Yrotation
											End Site
											{
												OFFSET 2.0000 0.0000 0.0000
											}
										}
									}
								}
								JOINT Beta:LeftHandPinky1
								{
									OFFSET	10.0130	-0.0783	-3.9671
									CHANNELS 3 Zrotation Xrotation Yrotation
									JOINT Beta:LeftHandPinky2
									{
										OFFSET	3.6763	0.0000	0.0000
										CHANNELS 3 Zrotation Xrotation Yrotation
										JOINT Beta:LeftHandPinky3
										{
											OFFSET	2.8113	0.0000	0.0000
											CHANNELS 3 Zrotation Xrotation Yrotation
											End Site
											{
												OFFSET 2.9000 0.0000 0.0000
											}
										}
									}
								}
							}
						}
					}
				}
				JOINT Beta:RightShoulder
				{
					OFFSET	-6.1402	10.1870	-3.7932
					CHANNELS 3 Zrotation Xrotation Yrotation
					JOINT Beta:RightArm
					{
						OFFSET	-12.3231	-1.1130	-1.7935
						CHANNELS 3 Zrotation Xrotation Yrotation
						JOINT Beta:RightForeArm
						{
							OFFSET	-27.6870	0.0000	0.0000
							CHANNELS 3 Xrotation Zrotation Yrotation
							JOINT Beta:RightHand
							{
								OFFSET	-27.8738	0.0000	0.0000
								CHANNELS 3 Zrotation Yrotation Xrotation
								JOINT Beta:RightHandThumb1
								{
									OFFSET	-2.5178	-0.9367	2.5137
									CHANNELS 3 Zrotation Xrotation Yrotation
									JOINT Beta:RightHandThumb2
									{
										OFFSET	-3.2638	-1.0870	2.9669
										CHANNELS 3 Zrotation Xrotation Yrotation
										JOINT Beta:RightHandThumb3
										{
											OFFSET	-4.4165	-1.3703	2.1350
											CHANNELS 3 Zrotation Xrotation Yrotation
											End Site
											{
												OFFSET -2.6000 -1.0000 1.0000
											}
										}
									}
								}
								JOINT Beta:RightHandIndex1
								{
									OFFSET	-10.4665	0.4896	2.7120
									CHANNELS 3 Zrotation Xrotation Yrotation
									JOINT Beta:RightHandIndex2
									{
										OFFSET	-5.3768	0.0000	0.0000
										CHANNELS 3 Zrotation Xrotation Yrotation
										JOINT Beta:RightHandIndex3
										{
											OFFSET	-3.3855	0.0000	0.0000
											CHANNELS 3 Zrotation Xrotation Yrotation
											End Site
											{
												OFFSET -2.6000 0.0000 0.0000
											}
										}
									}
								}
								JOINT Beta:RightHandMiddle1
								{
									OFFSET	-10.7596	0.4896	0.4278
									CHANNELS 3 Zrotation Xrotation Yrotation
									JOINT Beta:RightHandMiddle2
									{
										OFFSET	-5.6168	0.0000	0.0000
										CHANNELS 3 Zrotation Xrotation Yrotation
										JOINT Beta:RightHandMiddle3
										{
											OFFSET	-3.7364	0.0000	0.0000
											CHANNELS 3 Zrotation Xrotation Yrotation
											End Site
											{
												OFFSET -2.3000 0.0000 0.0000
											}
										}
									}
								}
								JOINT Beta:RightHandRing1
								{
									OFFSET	-10.4702	0.3879	-1.9363
									CHANNELS 3 Zrotation Xrotation Yrotation
									JOINT Beta:RightHandRing2
									{
										OFFSET	-5.4013	0.0000	0.0000
										CHANNELS 3 Zrotation Xrotation Yrotation
										JOINT Beta:RightHandRing3
										{
											OFFSET	-3.3916	0.0000	0.0000
											CHANNELS 3 Zrotation Xrotation Yrotation
											End Site
											{
												OFFSET -2.2000 0.0000 0.0000
											}
										}
									}
								}
								JOINT Beta:RightHandPinky1
								{
									OFFSET	-9.9715	-0.1191	-3.9540
									CHANNELS 3 Zrotation Xrotation Yrotation
									JOINT Beta:RightHandPinky2
									{
										OFFSET	-3.6528	0.0000	0.0000
										CHANNELS 3 Zrotation Xrotation Yrotation
										JOINT Beta:RightHandPinky3
										{
											OFFSET	-2.7820	0.0000	0.0000
											CHANNELS 3 Zrotation Xrotation Yrotation
											End Site
											{
												OFFSET -2.9000 0.0000 0.0000
											}
										}
									}
								}
							}
						}
					}
				}
			}
		}
	}
	JOINT Beta:LeftUpLeg
	{
		OFFSET	9.6338	-3.2733	0.0000
		CHANNELS 3 Xrotation Yrotation Zrotation
		JOINT Beta:LeftLeg
		{
			OFFSET	0.0000	-41.7300	-1.7300
			CHANNELS 3 Xrotation Yrotation Zrotation
			JOINT Beta:LeftFoot
			{
				OFFSET	0.0126	-39.1900	-0.8477
				CHANNELS 3 Xrotation Yrotation Zrotation
				JOINT Beta:LeftToeBase
				{
					OFFSET	-0.1833	-12.1931	8.2823
					CHANNELS 3 Xrotation Yrotation Zrotation
					End Site
					{
						OFFSET 0.0000 0.0000 10.1681
					}
				}
			}
		}
	}
	JOINT Beta:RightUpLeg
	{
		OFFSET	-9.6338	-3.2733	0.0000
		CHANNELS 3 Xrotation Yrotation Zrotation
		JOINT Beta:RightLeg
		{
			OFFSET	0.0000	-41.7300	-1.7300
			CHANNELS 3 Xrotation Yrotation Zrotation
			JOINT Beta:RightFoot
			{
				OFFSET	0.0126	-39.1900	-0.8477
				CHANNELS 3 Xrotation Yrotation Zrotation
				JOINT Beta:RightToeBase
				{
					OFFSET	-0.1833	-12.1931	8.2823
					CHANNELS 3 Xrotation Yrotation Zrotation
					End Site
					{
						OFFSET 0.0032 0.0000 10.1681
					}
				}
			}
		}
	}
}
MOTION
Frames: 7
Frame Time: 0.0333333
0.0236 95.0172 0.0024 -2.8616 -4.3072 1.6661 6.3214 -2.2191 -0.1481 0.5844 -0.6286 -0.1733 0.5866 -0.6223 -0.1711 -1.3528 -0.1965 -0.6046 -0.0000 0.0000 -0.0000 -1.7378 -5.3691 4.3658 -17.3002 1.0037 -0.6822 -56.0493 7.4967 -5.8899 0.0000 -0.0000 -13.1045 -1.1316 -2.5502 12.8993 3.8276 -2.7157 4.2561 -0.0954 9.0013 15.0270 15.6445 -12.2334 -25.4586 -33.0574 0.0029 0.8526 -38.1604 0.0032 -0.0093 -14.6376 0.0005 -0.0038 -20.0202 0.0031 -1.9191 -41.1132 0.0037 -0.0099 -18.5809 0.0008 -0.0048 -39.3773 0.0040 3.8392 -33.8969 0.0026 -0.0084 -17.1753 0.0007 -0.0045 -42.2961 0.0045 -0.3046 -38.4750 0.0033 -0.0093 -26.1430 0.0015 -0.0066 19.1226 1.6061 2.7504 60.9484 8.0268 3.8298 0.0000 0.0000 6.4408 3.7921 -3.5838 4.3551 -8.0203 2.2964 -6.1513 7.3916 10.0011 -9.5166 -21.4772 -20.0502 12.2152 25.6620 0.0094 3.4321 29.3251 0.0010 0.0039 16.6951 0.0003 0.0023 35.0018 0.0016 -0.3117 31.3014 0.0012 0.0041 20.6418 0.0005 0.0028 36.5448 0.0018 -4.2752 41.3452 0.0020 0.0052 15.8544 0.0003 0.0022 33.1987 -0.1406 -1.5163 28.5799 0.0010 0.0038 19.8488 0.0005 0.0027 -5.1117 10.9622 4.8742 18.7103 -4.1237 -1.4204 -9.3704 0.2035 -1.8248 -0.3639 0.0000 -0.0000 -28.6581 -5.4067 -1.3494 64.6164 0.1792 1.1898 1.8558 0.0142 -0.8768 -2.2977 -0.0000 0.0000 
0.1764 95.1171 4.0195 -2.9712 -3.7079 1.1182 6.1819 -3.6533 0.7264 0.5952 -1.0406 -0.0101 0.5979 -1.0353 -0.0053 -1.3826 -0.0946 -0.6046 -0.0000 0.0000 -0.0000 -2.0869 -4.8834 4.2166 -17.1755 1.1689 -1.3937 -54.3633 8.6391 -8.7193 0.0000 -0.0000 -15.4584 -1.5502 -3.9383 9.3904 3.8277 -2.7157 4.2562 -0.0267 8.9712 14.9049 16.0693 -12.3295 -25.8544 -32.7329 0.0029 0.8407 -38.1505 0.0032 -0.0093 -14.6143 0.0005 -0.0038 -19.7252 0.0031 -1.8796 -41.5923 0.0038 -0.0100 -18.5506 0.0008 -0.0048 -38.9295 0.0039 3.7983 -33.8739 0.0026 -0.0084 -17.1988 0.0007 -0.0044 -41.8992 0.0044 -0.3744 -38.3900 0.0033 -0.0093 -26.1058 0.0015 -0.0066 18.8062 1.3841 1.9496 62.2798 8.4853 0.5858 -0.0000 -0.0000 7.0792 4.5465 -4.1116 5.1571 -8.0203 2.2964 -6.1513 7.4456 10.0011 -9.6101 -21.6754 -20.2099 12.2753 26.1147 0.0095 3.5289 29.3252 0.0010 0.0039 16.4992 0.0003 0.0022 35.3193 0.0017 -0.2227 31.2794 0.0011 0.0041 20.7902 0.0005 0.0028 36.8683 0.0018 -4.0682 41.3402 0.0020 0.0052 15.9405 0.0003 0.0022 33.3209 -0.1406 -1.3597 28.5682 0.0010 0.0038 19.9345 0.0005 0.0027 -2.7595 11.3260 4.9323 18.2508 -4.1234 -1.2224 -11.3368 0.1074 -0.9857 -0.5635 0.0000 -0.0311 -31.7548 -5.3589 -0.6682 56.1277 -1.7997 1.6021 0.3448 0.0374 -1.0035 -1.5925 0.0000 -0.0000 
0.2210 94.8755 7.9926 -3.5053 -2.9716 0.5098 5.9926 -4.6642 1.6633 0.5815 -1.3409 0.1621 0.5832 -1.3370 0.1688 -1.4159 -0.0006 -0.5982 -0.0000 0.0000 -0.0000 -2.4720 -4.2956 3.9553 -17.2993 1.2851 -1.8544 -52.0197 9.7738 -11.3473 -0.0000 0.0000 -18.2745 -0.8593 -4.7344 6.8195 3.8277 -2.7157 4.2562 0.0223 8.9497 14.8176 16.5139 -12.4297 -26.2721 -32.3005 0.0028 0.8604 -38.2058 0.0032 -0.0093 -14.6176 0.0005 -0.0038 -19.5498 0.0031 -1.8759 -41.5447 0.0038 -0.0100 -18.6117 0.0008 -0.0048 -38.4234 0.0038 3.7602 -33.8045 0.0025 -0.0084 -17.2215 0.0007 -0.0044 -41.4157 0.0043 -0.3997 -38.3163 0.0032 -0.0093 -26.1032 0.0015 -0.0066 18.6985 1.2312 1.3672 63.1780 8.5384 -2.9976 -0.0000 0.0000 7.8095 4.6853 -3.9975 5.0319 -8.0203 2.2964 -6.1513 7.4611 10.0011 -9.6369 -21.2757 -19.8215 12.1548 25.6941 0.0094 3.4841 29.3251 0.0010 0.0039 16.2329 0.0003 0.0022 35.3064 0.0017 -0.4513 31.2474 0.0011 0.0041 20.9177 0.0005 0.0028 36.6932 0.0018 -3.9667 41.1836 0.0020 0.0052 16.0013 0.0003 0.0022 33.0016 -0.1406 -1.3008 28.3005 0.0009 0.0038 20.0010 0.0005 0.0027 -0.5875 11.7660 5.0979 18.2104 -3.6437 -0.9917 -14.5801 0.0149 -0.3231 -0.5205 0.0000 0.0000 -33.1802 -4.7651 0.3368 44.3975 -5.1908 1.5014 0.3798 0.0530 -1.2066 -0.6272 -0.0000 0.0000 
0.1556 94.3511 12.0404 -4.3747 -2.4718 0.0526 5.9387 -5.4173 2.4707 0.6342 -1.5714 0.2782 0.6349 -1.5675 0.2872 -1.4525 0.1046 -0.5668 -0.0000 0.0000 -0.0000 -3.2044 -3.3330 3.6752 -17.4910 1.3032 -1.8901 -49.4425 10.0776 -14.2946 -0.0000 0.0000 -20.5331 0.5132 -4.9592 5.3814 3.8277 -2.7157 4.2562 0.0471 8.9388 14.7735 16.7927 -12.4884 -26.5363 -31.8486 0.0027 0.8649 -38.2397 0.0032 -0.0093 -14.6510 0.0005 -0.0038 -19.3150 0.0088 -1.8662 -41.5578 0.0038 -0.0100 -18.6702 0.0008 -0.0048 -38.0295 0.0037 3.7306 -33.7830 0.0025 -0.0083 -17.2235 0.0007 -0.0044 -40.9510 0.0043 -0.5109 -38.2427 0.0032 -0.0093 -26.1033 0.0015 -0.0066 18.8519 1.1319 0.9493 63.7610 8.1299 -6.2560 0.0000 0.0000 8.1650 3.5290 -3.5691 4.8037 -8.0203 2.2964 -6.1513 7.4934 10.0011 -9.6929 -21.3137 -19.8403 12.1663 25.3117 0.0094 3.2925 29.3251 0.0010 0.0039 16.2470 0.0003 0.0022 35.0002 0.0016 -0.6262 31.2084 0.0011 0.0041 20.9278 0.0005 0.0028 36.3511 0.0017 -4.0397 41.0466 0.0019 0.0052 16.0479 0.0003 0.0022 32.7038 -0.1373 -1.4109 28.1301 0.0009 0.0037 20.0227 0.0005 0.0027 1.9891 12.6108 5.3668 18.0672 -3.1348 -1.1385 -17.8130 -0.0464 -0.0200 -0.7922 0.0000 0.0000 -31.9627 -4.0923 1.3041 28.3901 -8.4267 1.0049 2.7635 0.0403 -1.3242 -0.4129 -0.0000 0.0000 
0.0268 92.3312 16.7570 -5.3786 -2.1054 0.1931 4.8979 -5.9841 2.7265 1.1019 -1.7335 0.2160 1.1013 -1.7317 0.2144 -1.5085 0.1895 -0.5360 -0.0000 0.0000 -0.0000 -3.7813 -2.5043 3.5885 -17.6302 1.2660 -1.7086 -47.2362 9.5040 -17.1134 0.0000 0.0000 -21.8721 1.6912 -5.2286 5.0200 3.8277 -2.7157 4.2562 0.0974 8.9167 14.6837 16.9508 -12.5191 -26.6851 -31.5021 0.0027 0.8706 -38.2102 0.0032 -0.0093 -14.6446 0.0005 -0.0038 -19.1004 0.0214 -1.7789 -41.5759 0.0038 -0.0100 -18.6771 0.0008 -0.0048 -37.6424 0.0037 3.6747 -33.7792 0.0025 -0.0083 -17.2416 0.0007 -0.0045 -40.6405 0.0042 -0.6463 -38.2310 0.0032 -0.0093 -26.1057 0.0015 -0.0066 18.9309 1.0182 0.4908 64.2388 6.6420 -9.0924 0.0000 0.0000 7.7510 1.6123 -3.5655 5.7395 -8.0202 2.2964 -6.1513 7.5773 10.0011 -9.8377 -21.6097 -20.0772 12.2560 25.0190 0.0213 2.9387 29.3251 0.0010 0.0039 16.5196 0.0003 0.0022 34.6061 0.0016 -0.8699 31.1526 0.0011 0.0041 20.7769 0.0005 0.0028 36.0700 0.0016 -4.5268 40.8420 0.0019 0.0052 15.9857 0.0003 0.0022 32.6931 -0.1155 -1.7075 28.0904 0.0009 0.0037 19.9324 0.0005 0.0027 1.7516 13.0456 5.9566 25.4705 -2.8030 -1.4178 -24.8314 0.0684 -0.3613 -1.7041 0.0000 0.0000 -33.6883 -4.0283 1.3572 19.8085 -8.7132 0.4848 0.7258 -0.9117 -0.0612 0.9145 -0.0000 -0.0000 
-0.2996 90.5422 21.7250 -6.2304 -1.7699 0.8674 3.7483 -6.4723 2.3995 1.4504 -1.8563 0.1215 1.4497 -1.8559 0.1075 -1.5733 0.2554 -0.5600 -0.0000 0.0000 -0.0000 -3.7888 -2.0363 3.5433 -17.7990 1.2514 -1.6151 -45.7735 8.2849 -19.1045 0.0000 0.0000 -22.5041 2.3970 -5.6471 5.2059 3.8277 -2.7158 4.2561 0.0441 8.9401 14.7788 16.7990 -12.4888 -26.5431 -31.3269 0.0027 0.9028 -38.3406 0.0032 -0.0093 -14.6533 0.0005 -0.0038 -19.1026 0.0256 -1.7625 -41.5982 0.0038 -0.0100 -18.6817 0.0008 -0.0048 -37.3979 0.0036 3.6200 -33.8210 0.0026 -0.0084 -17.2472 0.0007 -0.0045 -40.4675 0.0042 -0.7534 -38.2159 0.0032 -0.0093 -26.1104 0.0015 -0.0066 18.5862 0.8628 -0.0764 64.6488 3.8527 -11.5108 0.0000 0.0000 6.2770 1.6737 -4.2447 6.7971 -8.0203 2.2964 -6.1513 7.5882 10.0011 -9.8565 -21.7297 -20.1859 12.2926 24.3403 0.0357 2.4404 29.3390 0.0010 0.0039 16.7941 0.0003 0.0023 34.0531 0.0015 -1.2370 31.0862 0.0011 0.0041 20.5865 0.0005 0.0028 35.5016 0.0016 -5.1957 40.4313 0.0019 0.0051 15.8441 0.0003 0.0022 32.5989 -0.0854 -2.1174 28.0707 0.0009 0.0037 19.7974 0.0005 0.0027 3.9853 13.3266 5.6692 28.0935 -2.9793 -1.4979 -27.6482 0.7294 -2.5084 -3.6991 -0.0000 -0.0000 -38.4269 -4.0727 0.7130 19.7935 -7.9092 -0.1220 -5.7615 -2.1983 4.7622 1.3073 0.0000 0.0000 
-0.9030 89.6564 26.3912 -6.7080 -1.5558 1.3097 3.6012 -7.0755 2.2022 1.3059 -2.0155 0.1239 1.3058 -2.0149 0.1110 -1.6158 0.3246 -0.6171 -0.0000 0.0000 -0.0000 -3.6187 -1.7672 3.4838 -18.1049 1.2675 -1.6205 -45.0973 6.6512 -20.1311 -0.0000 0.0000 -22.6000 3.0699 -5.7853 5.0931 3.8277 -2.7158 4.2562 0.0249 8.9485 14.8129 16.8347 -12.5002 -26.5776 -31.1955 0.0026 0.8865 -38.3221 0.0032 -0.0093 -14.6629 0.0005 -0.0038 -18.9809 0.0264 -1.7469 -41.6250 0.0038 -0.0100 -18.6845 0.0008 -0.0048 -37.2546 0.0036 3.5588 -33.7889 0.0025 -0.0084 -17.2779 0.0007 -0.0045 -40.4037 0.0042 -0.8950 -38.1985 0.0032 -0.0093 -26.1479 0.0015 -0.0066 18.1515 0.7283 -0.5643 64.7872 1.1125 -13.6393 -0.0000 0.0000 4.5740 1.6805 -5.3407 8.9081 -8.0203 2.2964 -6.1513 7.1874 9.9455 -9.1626 -20.6239 -19.3005 11.9828 22.7790 0.0458 2.1433 29.2507 0.0010 0.0039 17.4043 0.0004 0.0024 33.3889 0.0013 -1.6861 31.0213 0.0011 0.0041 20.4411 0.0005 0.0028 34.5709 0.0014 -5.6205 40.2816 0.0019 0.0051 15.6890 0.0003 0.0021 31.8548 -0.0688 -2.3462 28.1523 0.0009 0.0037 19.6625 0.0005 0.0027 7.7557 14.0451 5.6694 26.1603 -4.3225 -1.7225 -25.5587 1.3328 -4.7336 -8.6107 0.0000 -0.0000 -40.8024 -3.1554 1.3342 19.7129 -7.2481 -1.7508 -10.2431 -4.6036 9.1531 1.0014 0.0000 0.0000 
